<?xml version="1.0" encoding="UTF-8" standalone="no"?>
<svg
   width="240"
   height="240"
   viewBox="0 0 240 240"
   fill="none"
   version="1.1"
   id="svg2"
   sodipodi:docname="icon-disconnected.svg"
   inkscape:version="1.3 (0e150ed6c4, 2023-07-21)"
   inkscape:export-filename="icon-disconnected.png"
   inkscape:export-xdpi="96"
   inkscape:export-ydpi="96"
   xmlns:inkscape="http://www.inkscape.org/namespaces/inkscape"
   xmlns:sodipodi="http://sodipodi.sourceforge.net/DTD/sodipodi-0.dtd"
   xmlns="http://www.w3.org/2000/svg"
   xmlns:svg="http://www.w3.org/2000/svg">
  <defs
     id="defs2" />
  <sodipodi:namedview
     id="namedview2"
     pagecolor="#ffffff"
     bordercolor="#000000"
     borderopacity="0.25"
     inkscape:showpageshadow="2"
     inkscape:pageopacity="0.0"
     inkscape:pagecheckerboard="0"
     inkscape:deskcolor="#d1d1d1"
     inkscape:zoom="4.7166667"
     inkscape:cx="111.51943"
     inkscape:cy="61.484099"
     inkscape:window-width="3440"
     inkscape:window-height="1378"
     inkscape:window-x="0"
     inkscape:window-y="80"
     inkscape:window-maximized="1"
     inkscape:current-layer="svg2" />
  <path
     d="m 240,224.762 c 0,8.25 -6.75,15 -15,15 H 15 c -8.25,0 -15,-6.75 -15,-15 v -90 c 0,-8.25 4.77,-19.769 10.61,-25.609 l 98.78,-98.7805 c 5.83,-5.83 15.38,-5.83 21.21,0 l 98.79,98.7895 c 5.83,5.83 10.61,17.36 10.61,25.61 v 90 z"
     fill="#f2f4f9"
     id="path1"
     sodipodi:nodetypes="cssssccccscc" />
  <path
     id="path2"
     style="fill:#c83737"
     d="M 120.00586 6 C 116.16086 6 112.31539 7.4580498 109.40039 10.373047 L 10.609375 109.15234 C 4.7793808 114.98234 0 126.51173 0 134.76172 L 0 224.76172 C 0 233.01171 6.7500083 239.76172 15 239.76172 L 34.052734 239.76172 L 124.21875 154.45312 L 69.837891 154.45312 L 169.875 49.638672 L 130.60938 10.373047 C 127.69438 7.4580498 123.85086 6 120.00586 6 z M 182.96875 62.730469 L 116.79883 136.98828 L 173.43359 136.98828 L 61.699219 239.76172 L 107.26953 239.76172 L 129 239.77148 L 225 239.77148 C 233.24999 239.77148 240 233.02148 240 224.77148 L 240 134.77148 C 240 126.52149 235.23062 115.0021 229.39062 109.16211 L 229.39062 109.15234 L 182.96875 62.730469 z " />
</svg>
