<?xml version="1.0" encoding="UTF-8" standalone="no"?>
<svg
   width="240"
   height="240"
   viewBox="0 0 240 240"
   fill="none"
   version="1.1"
   id="svg2"
   sodipodi:docname="icon-waiting.svg"
   inkscape:version="1.3 (0e150ed6c4, 2023-07-21)"
   inkscape:export-filename="icon-waiting.png"
   inkscape:export-xdpi="96"
   inkscape:export-ydpi="96"
   xmlns:inkscape="http://www.inkscape.org/namespaces/inkscape"
   xmlns:sodipodi="http://sodipodi.sourceforge.net/DTD/sodipodi-0.dtd"
   xmlns="http://www.w3.org/2000/svg"
   xmlns:svg="http://www.w3.org/2000/svg">
  <defs
     id="defs2" />
  <sodipodi:namedview
     id="namedview2"
     pagecolor="#ffffff"
     bordercolor="#000000"
     borderopacity="0.25"
     inkscape:showpageshadow="2"
     inkscape:pageopacity="0.0"
     inkscape:pagecheckerboard="0"
     inkscape:deskcolor="#d1d1d1"
     inkscape:zoom="4.7166667"
     inkscape:cx="120"
     inkscape:cy="120"
     inkscape:window-width="3440"
     inkscape:window-height="1378"
     inkscape:window-x="0"
     inkscape:window-y="80"
     inkscape:window-maximized="1"
     inkscape:current-layer="svg2" />
  <path
     d="m 240,224.762 c 0,8.25 -6.75,15 -15,15 H 15 c -8.25,0 -15,-6.75 -15,-15 v -90 c 0,-8.25 4.77,-19.769 10.61,-25.609 l 98.78,-98.7805 c 5.83,-5.83 15.38,-5.83 21.21,0 l 98.79,98.7895 c 5.83,5.83 10.61,17.36 10.61,25.61 v 90 z"
     fill="#f2f4f9"
     id="path1"
     sodipodi:nodetypes="cssssccccscc" />
  <path
     d="M 229.39,109.153 130.61,10.3725 c -5.83,-5.83 -15.38,-5.83 -21.21,0 L 10.61,109.153 C 4.78,114.983 0,126.512 0,134.762 v 90 c 0,8.25 6.75,15 15,15 h 92.27 l 21.73,0.01 h 96 c 8.25,0 15,-6.75 15,-15 v -90 c 0,-8.25 -4.77,-19.77 -10.61,-25.61 z"
     fill="#18BCF2"
     id="path2"
     style="fill:#999999"
     sodipodi:nodetypes="ccccsssccssscc" />
  <circle
     style="fill:#f9f9f9;stroke-width:1.03158"
     id="path3"
     cx="59.999996"
     cy="160.00002"
     r="20.777384" />
  <circle
     style="fill:#f9f9f9;stroke-width:1.03158"
     id="circle5"
     cx="120"
     cy="160.00002"
     r="20.777384" />
  <circle
     style="fill:#f9f9f9;stroke-width:1.03158"
     id="circle6"
     cx="180"
     cy="160.00002"
     r="20.777384" />
</svg>
